<svg width="17" height="16" viewBox="0 0 17 16" fill="none" xmlns="http://www.w3.org/2000/svg">
<path d="M13.8929 5.08566H12.9329C13.2072 4.75652 13.3786 4.34509 13.3786 3.88566C13.3786 2.84337 12.5352 1.99994 11.4929 1.99994C10.3409 1.99994 9.32602 2.61023 8.75002 3.51537C8.45713 3.05252 8.05224 2.67101 7.57281 2.40612C7.09338 2.14124 6.55489 2.00154 6.00715 1.99994C4.96486 1.99994 4.12143 2.84337 4.12143 3.88566C4.12143 4.34509 4.29286 4.75652 4.56715 5.08566H3.60715C3.134 5.08566 2.75 5.46967 2.75 5.94281V7.6571C2.75 8.06853 3.04486 8.39768 3.43572 8.47996V13.1428C3.43572 13.616 3.81972 14 4.29286 14H13.2072C13.6803 14 14.0643 13.616 14.0643 13.1428V8.47996C14.4552 8.39768 14.75 8.06853 14.75 7.6571V5.94281C14.75 5.46967 14.366 5.08566 13.8929 5.08566ZM13.7215 7.48567H9.26431V6.11424H13.7215V7.48567ZM11.4929 3.02851C11.7202 3.02851 11.9382 3.11882 12.099 3.27957C12.2597 3.44031 12.35 3.65833 12.35 3.88566C12.35 4.11299 12.2597 4.33101 12.099 4.49175C11.9382 4.6525 11.7202 4.74281 11.4929 4.74281H9.32602C9.55917 3.76223 10.4437 3.02851 11.4929 3.02851ZM6.00715 3.02851C7.0563 3.02851 7.94087 3.76223 8.17402 4.74281H6.00715C5.77982 4.74281 5.56181 4.6525 5.40106 4.49175C5.24031 4.33101 5.15001 4.11299 5.15001 3.88566C5.15001 3.65833 5.24031 3.44031 5.40106 3.27957C5.56181 3.11882 5.77982 3.02851 6.00715 3.02851ZM3.77857 6.11424H8.23573V7.48567H3.77857V6.11424ZM4.46429 8.51425H8.23573V12.9714H4.46429V8.51425ZM13.0357 12.9714H9.26431V8.51425H13.0357V12.9714Z" fill="white"/>
</svg>
