<svg width="17" height="16" viewBox="0 0 17 16" fill="none" xmlns="http://www.w3.org/2000/svg">
<path d="M2.5 8C2.5 8.82076 2.66166 9.63349 2.97575 10.3918C3.28984 11.1501 3.75022 11.8391 4.33058 12.4194C4.91095 12.9998 5.59994 13.4602 6.35823 13.7742C7.11651 14.0883 7.92924 14.25 8.75 14.25C9.57076 14.25 10.3835 14.0883 11.1418 13.7742C11.9001 13.4602 12.5891 12.9998 13.1694 12.4194C13.7498 11.8391 14.2102 11.1501 14.5242 10.3918C14.8383 9.63349 15 8.82076 15 8C15 7.17924 14.8383 6.36651 14.5242 5.60823C14.2102 4.84994 13.7498 4.16095 13.1694 3.58058C12.5891 3.00022 11.9001 2.53984 11.1418 2.22575C10.3835 1.91166 9.57076 1.75 8.75 1.75C7.92924 1.75 7.11651 1.91166 6.35823 2.22575C5.59994 2.53984 4.91095 3.00022 4.33058 3.58058C3.75022 4.16095 3.28984 4.84994 2.97575 5.60823C2.66166 6.36651 2.5 7.17924 2.5 8Z" stroke="white" stroke-width="1.38889" stroke-linecap="round" stroke-linejoin="round"/>
<path d="M5.37943 5.26042H7.14701C7.50942 5.26042 7.82083 5.31467 8.08125 5.42318C8.34384 5.53168 8.54566 5.69227 8.68672 5.90495C8.82778 6.11762 8.89831 6.37912 8.89831 6.68945C8.89831 6.94336 8.8549 7.16146 8.7681 7.34375C8.68346 7.52387 8.56302 7.6747 8.40677 7.79622C8.25269 7.91558 8.07148 8.01107 7.86315 8.08268L7.55391 8.24544H6.01745L6.01094 7.48372H7.15352C7.32496 7.48372 7.4671 7.45334 7.57995 7.39258C7.69279 7.33181 7.77743 7.24718 7.83385 7.13867C7.89245 7.03016 7.92174 6.9043 7.92174 6.76107C7.92174 6.60916 7.89353 6.47786 7.83711 6.36719C7.78069 6.25651 7.69497 6.17187 7.57995 6.11328C7.46493 6.05469 7.32062 6.02539 7.14701 6.02539H6.35599V10H5.37943V5.26042ZM8.02917 10L6.94844 7.88737L7.98034 7.88086L9.07409 9.95443V10H8.02917ZM10.5958 7.15495V11.3542H9.65833V6.47786H10.5275L10.5958 7.15495ZM12.8257 8.19987V8.26823C12.8257 8.52431 12.7953 8.76194 12.7345 8.98112C12.6759 9.2003 12.5891 9.39128 12.4741 9.55404C12.3591 9.71463 12.2158 9.84049 12.0444 9.93164C11.8751 10.0206 11.6798 10.0651 11.4585 10.0651C11.2436 10.0651 11.057 10.0217 10.8986 9.9349C10.7401 9.84809 10.6067 9.72656 10.4982 9.57031C10.3918 9.41189 10.3061 9.22852 10.241 9.02018C10.1759 8.81185 10.126 8.58832 10.0913 8.34961V8.17057C10.126 7.9145 10.1759 7.68012 10.241 7.46745C10.3061 7.2526 10.3918 7.06706 10.4982 6.91081C10.6067 6.75239 10.7391 6.62977 10.8953 6.54297C11.0537 6.45616 11.2393 6.41276 11.452 6.41276C11.6755 6.41276 11.8719 6.45508 12.0411 6.53971C12.2126 6.62435 12.3558 6.74588 12.4708 6.9043C12.588 7.06272 12.6759 7.25152 12.7345 7.4707C12.7953 7.68989 12.8257 7.93294 12.8257 8.19987ZM11.8849 8.26823V8.19987C11.8849 8.05013 11.8719 7.91233 11.8458 7.78646C11.822 7.65842 11.7829 7.54666 11.7286 7.45117C11.6766 7.35569 11.6071 7.2819 11.5203 7.22982C11.4357 7.17556 11.3326 7.14844 11.2111 7.14844C11.083 7.14844 10.9734 7.16905 10.8823 7.21029C10.7933 7.25152 10.7206 7.3112 10.6642 7.38932C10.6078 7.46745 10.5655 7.56076 10.5372 7.66927C10.509 7.77778 10.4917 7.90039 10.4852 8.03711V8.48958C10.496 8.65017 10.5264 8.79449 10.5763 8.92253C10.6262 9.04839 10.7033 9.14822 10.8074 9.22201C10.9116 9.29579 11.0483 9.33268 11.2176 9.33268C11.3413 9.33268 11.4454 9.30556 11.5301 9.2513C11.6147 9.19488 11.6831 9.11784 11.7352 9.02018C11.7894 8.92253 11.8274 8.80968 11.8491 8.68164C11.873 8.5536 11.8849 8.4158 11.8849 8.26823Z" fill="white"/>
</svg>
